<?xml version="1.0" encoding="UTF-8"?>
<svg version="1.1" xmlns="http://www.w3.org/2000/svg" width="128" height="128">
<path d="M0 0 C3.12947381 2.17387472 5.68900915 4.53786043 8.19921875 7.39453125 C9.63072069 8.98436574 9.63072069 8.98436574 11.65625 9.73046875 C16.30310085 12.33377143 18.5408716 18.20429108 20.69921875 22.875 C21.30790962 25.28604824 21.50887244 27.41276053 21.58984375 29.89453125 C21.74131039 34.02199708 22.27116099 38.08845345 22.76171875 42.1875 C23.83679507 51.27995091 23.83679507 51.27995091 23.69921875 55.875 C23.03921875 55.875 22.37921875 55.875 21.69921875 55.875 C21.82296875 56.7825 21.94671875 57.69 22.07421875 58.625 C22.12295493 64.54644571 18.69931327 69.9473836 15.69921875 74.875 C14.70921875 75.37 14.70921875 75.37 13.69921875 75.875 C13.20421875 77.36 13.20421875 77.36 12.69921875 78.875 C11.38047796 79.57008629 10.04516948 80.2341889 8.69921875 80.875 C7.66075671 81.8999404 6.66233403 82.96645474 5.69921875 84.0625 C-4.00362155 93.90893413 -17.63670699 98.66189175 -31.30078125 99.375 C-47.1156938 98.54964261 -60.79215345 92.41706778 -71.4609375 80.6953125 C-73.26621885 78.64072387 -73.26621885 78.64072387 -76.30078125 77.875 C-76.63078125 76.885 -76.96078125 75.895 -77.30078125 74.875 C-77.91953125 74.1325 -78.53828125 73.39 -79.17578125 72.625 C-83.38061182 67.18345455 -84.55218629 62.66293601 -84.30078125 55.875 C-84.45933594 55.10542969 -84.61789063 54.33585937 -84.78125 53.54296875 C-86.56777812 44.36854237 -85.12425189 34.92580318 -83.30078125 25.875 C-83.18089844 25.05257812 -83.06101562 24.23015625 -82.9375 23.3828125 C-82.14279547 20.25274925 -80.77725927 17.9748327 -79.05078125 15.25 C-78.468125 14.30898438 -77.88546875 13.36796875 -77.28515625 12.3984375 C-75.15796213 9.69338356 -73.28678105 8.52082666 -70.30078125 6.875 C-69.13091172 5.81766825 -67.98475882 4.73352749 -66.86328125 3.625 C-47.55038245 -13.66848923 -21.1300848 -12.81615601 0 0 Z M-82.30078125 23.875 C-81.30078125 25.875 -81.30078125 25.875 -81.30078125 25.875 Z M18.69921875 23.875 C19.69921875 25.875 19.69921875 25.875 19.69921875 25.875 Z M-83.30078125 60.875 C-82.30078125 62.875 -82.30078125 62.875 -82.30078125 62.875 Z M19.69921875 60.875 C20.69921875 62.875 20.69921875 62.875 20.69921875 62.875 Z " fill="#2AB31B" transform="translate(95.30078125,19.125)"/>
<path d="M0 0 C0.33 0.66 0.66 1.32 1 2 C1.825 1.814375 2.65 1.62875 3.5 1.4375 C7 1 7 1 15 2 C15 20.15 15 38.3 15 57 C16.32 57.33 17.64 57.66 19 58 C20.75390625 59.56640625 20.75390625 59.56640625 22.5625 61.5625 C26.49109075 65.65966834 30.76110292 68.84578321 35.37890625 72.125 C45.93881518 79.67903321 45.93881518 79.67903321 48 86 C47.0932415 88.99882223 46.09099574 89.93877447 43.46875 91.703125 C42.4890625 92.21359375 41.509375 92.7240625 40.5 93.25 C39.5203125 93.77078125 38.540625 94.2915625 37.53125 94.828125 C35 96 35 96 33 96 C32.76925781 95.43152344 32.53851563 94.86304687 32.30078125 94.27734375 C30.05906104 88.96987179 27.50308387 84.57347061 24 80 C23.01 80.33 22.02 80.66 21 81 C21.4238706 85.52128642 23.40687706 88.40927171 25.94140625 92.03515625 C27 94 27 94 27 98 C19.31336024 100.26399841 11.25509316 99.67688629 3.9375 96.55859375 C1.57411178 95.87721368 0.32590138 96.30409778 -2 97 C-5.125 96.875 -5.125 96.875 -8 96 C-9.125 93.625 -9.125 93.625 -10 91 C-12.01317219 89.19651922 -12.01317219 89.19651922 -14 88 C-11.41135836 80.082612 -3.86793155 75.22641942 3 71 C2.67 69.35 2.34 67.7 2 66 C-5.71909968 70.48717757 -11.95905595 75.42208315 -18 82 C-22.0127492 80.66241693 -22.93385112 78.66462726 -25.05859375 75.14453125 C-26.37324977 72.14973393 -25.99367701 70.05746772 -25 67 C-25.66 66.67 -26.32 66.34 -27 66 C-27 66.99 -27 67.98 -27 69 C-27.99 68.67 -28.98 68.34 -30 68 C-31.65468386 56.41721296 -32.06127682 44.37045674 -29 33 C-29.66 33 -30.32 33 -31 33 C-31 32.34 -31 31.68 -31 31 C-30.34 31 -29.68 31 -29 31 C-28.87625 30.360625 -28.7525 29.72125 -28.625 29.0625 C-28.41875 28.381875 -28.2125 27.70125 -28 27 C-27.34 26.67 -26.68 26.34 -26 26 C-25.814375 24.7934375 -25.814375 24.7934375 -25.625 23.5625 C-25.41875 22.716875 -25.2125 21.87125 -25 21 C-23 19.875 -23 19.875 -21 19 C-20.67 18.01 -20.34 17.02 -20 16 C-19.34 16 -18.68 16 -18 16 C-17.67 14.68 -17.34 13.36 -17 12 C-15.68 12 -14.36 12 -13 12 C-13 10.68 -13 9.36 -13 8 C-13.66 7.67 -14.32 7.34 -15 7 C-13.37554381 6.01993141 -11.75041739 5.04097364 -10.125 4.0625 C-9.22007813 3.51722656 -8.31515625 2.97195312 -7.3828125 2.41015625 C-3.31024931 0 -3.31024931 0 0 0 Z " fill="#2CB11D" transform="translate(47,13)"/>
<path d="M0 0 C3.12947381 2.17387472 5.68900915 4.53786043 8.19921875 7.39453125 C9.63072069 8.98436574 9.63072069 8.98436574 11.65625 9.73046875 C16.30310085 12.33377143 18.5408716 18.20429108 20.69921875 22.875 C21.30790962 25.28604824 21.50887244 27.41276053 21.58984375 29.89453125 C21.74131039 34.02199708 22.27116099 38.08845345 22.76171875 42.1875 C23.83679507 51.27995091 23.83679507 51.27995091 23.69921875 55.875 C23.03921875 55.875 22.37921875 55.875 21.69921875 55.875 C21.82296875 56.7825 21.94671875 57.69 22.07421875 58.625 C22.12295493 64.54644571 18.69931327 69.9473836 15.69921875 74.875 C14.70921875 75.37 14.70921875 75.37 13.69921875 75.875 C13.20421875 77.36 13.20421875 77.36 12.69921875 78.875 C11.38047796 79.57008629 10.04516948 80.2341889 8.69921875 80.875 C7.66075671 81.8999404 6.66233403 82.96645474 5.69921875 84.0625 C-4.00362155 93.90893413 -17.63670699 98.66189175 -31.30078125 99.375 C-47.1156938 98.54964261 -60.79215345 92.41706778 -71.4609375 80.6953125 C-73.26621885 78.64072387 -73.26621885 78.64072387 -76.30078125 77.875 C-76.63078125 76.885 -76.96078125 75.895 -77.30078125 74.875 C-77.91953125 74.1325 -78.53828125 73.39 -79.17578125 72.625 C-83.38061182 67.18345455 -84.55218629 62.66293601 -84.30078125 55.875 C-84.45933594 55.10542969 -84.61789063 54.33585937 -84.78125 53.54296875 C-86.56777812 44.36854237 -85.12425189 34.92580318 -83.30078125 25.875 C-83.18089844 25.05257812 -83.06101562 24.23015625 -82.9375 23.3828125 C-82.14279547 20.25274925 -80.77725927 17.9748327 -79.05078125 15.25 C-78.468125 14.30898438 -77.88546875 13.36796875 -77.28515625 12.3984375 C-75.16555051 9.70303335 -73.27795051 8.50980631 -70.30078125 6.875 C-69.03234375 5.5446875 -69.03234375 5.5446875 -67.73828125 4.1875 C-65.30078125 1.875 -65.30078125 1.875 -61.30078125 1.875 C-61.30078125 3.195 -61.30078125 4.515 -61.30078125 5.875 C-61.94015625 5.978125 -62.57953125 6.08125 -63.23828125 6.1875 C-63.91890625 6.414375 -64.59953125 6.64125 -65.30078125 6.875 C-65.63078125 7.865 -65.96078125 8.855 -66.30078125 9.875 C-66.96078125 9.875 -67.62078125 9.875 -68.30078125 9.875 C-68.63078125 11.195 -68.96078125 12.515 -69.30078125 13.875 C-70.62078125 14.205 -71.94078125 14.535 -73.30078125 14.875 C-73.30078125 16.525 -73.30078125 18.175 -73.30078125 19.875 C-74.29078125 20.205 -75.28078125 20.535 -76.30078125 20.875 C-76.30078125 22.525 -76.30078125 24.175 -76.30078125 25.875 C-77.29078125 25.545 -78.28078125 25.215 -79.30078125 24.875 C-79.30078125 25.535 -79.30078125 26.195 -79.30078125 26.875 C-78.64078125 26.875 -77.98078125 26.875 -77.30078125 26.875 C-77.37296875 27.41125 -77.44515625 27.9475 -77.51953125 28.5 C-78.80798694 39.38029251 -79.19984222 51.05035245 -77.30078125 61.875 C-76.64078125 62.205 -75.98078125 62.535 -75.30078125 62.875 C-75.30078125 61.885 -75.30078125 60.895 -75.30078125 59.875 C-74.31078125 60.205 -73.32078125 60.535 -72.30078125 60.875 C-72.56890625 61.7 -72.83703125 62.525 -73.11328125 63.375 C-73.37802961 68.31696947 -71.14788444 70.99348216 -68.30078125 74.875 C-64.99104965 73.44712906 -62.98839528 71.69653334 -60.55078125 69.0625 C-56.8717474 65.28012251 -53.06104217 62.19925885 -48.30078125 59.875 C-47.64078125 59.875 -46.98078125 59.875 -46.30078125 59.875 C-45.64078125 61.525 -44.98078125 63.175 -44.30078125 64.875 C-45.10902344 65.45507812 -45.91726562 66.03515625 -46.75 66.6328125 C-54.8939399 72.37117899 -54.8939399 72.37117899 -61.30078125 79.875 C-60.06993047 83.56755234 -58.05631512 85.19012085 -55.30078125 87.875 C-55.30078125 88.205 -55.30078125 88.535 -55.30078125 88.875 C-54.02203125 89.08125 -52.74328125 89.2875 -51.42578125 89.5 C-50.70648438 89.61601563 -49.9871875 89.73203125 -49.24609375 89.8515625 C-48.28316406 89.86316406 -48.28316406 89.86316406 -47.30078125 89.875 C-46.64078125 89.215 -45.98078125 88.555 -45.30078125 87.875 C-45.30078125 88.865 -45.30078125 89.855 -45.30078125 90.875 C-37.32587997 92.20415021 -29.35891406 91.96301359 -21.30078125 91.875 C-21.89715216 90.28871392 -22.5032405 88.70607941 -23.11328125 87.125 C-23.44972656 86.24328125 -23.78617188 85.3615625 -24.1328125 84.453125 C-25.20473736 81.83454186 -25.20473736 81.83454186 -26.95703125 79.6875 C-28.30078125 77.875 -28.30078125 77.875 -27.98828125 75.625 C-27.76140625 75.0475 -27.53453125 74.47 -27.30078125 73.875 C-25.98078125 73.875 -24.66078125 73.875 -23.30078125 73.875 C-21.4140625 75.8515625 -21.4140625 75.8515625 -19.61328125 78.5 C-19.01128906 79.35851562 -18.40929687 80.21703125 -17.7890625 81.1015625 C-16.1899061 84.08161773 -15.66838898 86.5322204 -15.30078125 89.875 C-14.56472656 89.441875 -13.82867187 89.00875 -13.0703125 88.5625 C-12.09449219 88.005625 -11.11867188 87.44875 -10.11328125 86.875 C-9.15035156 86.318125 -8.18742187 85.76125 -7.1953125 85.1875 C-4.25189382 83.85283242 -2.48198068 83.59584539 0.69921875 83.875 C0.69921875 81.565 0.69921875 79.255 0.69921875 76.875 C1.97796875 76.648125 3.25671875 76.42125 4.57421875 76.1875 C6.78422159 75.70867314 6.78422159 75.70867314 8.69921875 74.875 C9.85443377 72.40369082 9.85443377 72.40369082 10.69921875 69.875 C13.82421875 68.5625 13.82421875 68.5625 16.69921875 67.875 C15.21421875 67.38 15.21421875 67.38 13.69921875 66.875 C14.19421875 64.895 14.19421875 64.895 14.69921875 62.875 C13.21421875 62.38 13.21421875 62.38 11.69921875 61.875 C12.19421875 60.39 12.19421875 60.39 12.69921875 58.875 C13.68921875 58.545 14.67921875 58.215 15.69921875 57.875 C16.03364385 39.77888618 15.55156952 24.49540446 2.3671875 10.49609375 C-0.70201449 7.51314568 -3.2183761 5.23580172 -7.30078125 3.875 C-7.30078125 4.535 -7.30078125 5.195 -7.30078125 5.875 C-8.29078125 5.875 -9.28078125 5.875 -10.30078125 5.875 C-10.43355469 6.85597656 -10.56632812 7.83695313 -10.703125 8.84765625 C-11.30017553 13.02700993 -12.0704978 17.16650806 -12.86328125 21.3125 C-13.00185547 22.04404297 -13.14042969 22.77558594 -13.28320312 23.52929688 C-13.62099935 25.31146318 -13.96069113 27.09327002 -14.30078125 28.875 C-18.02096063 22.85749869 -17.05809925 14.39455879 -15.625 7.734375 C-14.92449799 5.41043469 -14.17679181 3.13802727 -13.30078125 0.875 C-14.84094819 0.3910345 -16.38300319 -0.08692387 -17.92578125 -0.5625 C-18.78429687 -0.82933594 -19.6428125 -1.09617187 -20.52734375 -1.37109375 C-23.43691563 -2.16200554 -26.32548839 -2.64830556 -29.30078125 -3.125 C-29.1828452 3.3163711 -29.05802181 9.75758266 -28.9284668 16.19873047 C-28.88522248 18.38880405 -28.8435402 20.57890907 -28.8034668 22.76904297 C-28.74550928 25.92164573 -28.6818887 29.07409181 -28.6171875 32.2265625 C-28.60047501 33.20178864 -28.58376251 34.17701477 -28.56654358 35.18179321 C-28.46554443 39.84305305 -28.24401313 44.28975181 -27.30078125 48.875 C-29.28078125 49.535 -31.26078125 50.195 -33.30078125 50.875 C-33.30078125 32.725 -33.30078125 14.575 -33.30078125 -4.125 C-43.3528866 -4.48454625 -43.3528866 -4.48454625 -49.30078125 -3.125 C-48.97078125 -4.445 -48.64078125 -5.765 -48.30078125 -7.125 C-31.53312053 -12.78210551 -14.74757021 -8.94493147 0 0 Z M-82.30078125 23.875 C-81.30078125 25.875 -81.30078125 25.875 -81.30078125 25.875 Z M18.69921875 23.875 C19.69921875 25.875 19.69921875 25.875 19.69921875 25.875 Z M-83.30078125 60.875 C-82.30078125 62.875 -82.30078125 62.875 -82.30078125 62.875 Z M19.69921875 60.875 C20.69921875 62.875 20.69921875 62.875 20.69921875 62.875 Z " fill="#21C10F" transform="translate(95.30078125,19.125)"/>
<path d="M0 0 C5.83841313 4.63046559 7.03811876 11.94620424 8 19 C9.46294809 36.10808017 9.46294809 36.10808017 6 41.5625 C-0.27874202 48.11291835 -10.96797547 54.11091009 -20 55 C-24.34951194 43.74346309 -22.74068478 30.87138517 -18 20 C-16.2458408 16.77254417 -14.26917753 13.88445204 -12 11 C-11.50242187 10.35160156 -11.00484375 9.70320313 -10.4921875 9.03515625 C-7.37906599 5.18042726 -4.25503341 2.53275798 0 0 Z " fill="#010701" transform="translate(38,23)"/>
<path d="M0 0 C6.52739684 1.09035523 11.21006156 6.62944814 15.03515625 11.6953125 C23.10432417 23.99608227 26.03766694 37.2442292 23.4921875 51.9296875 C23.32976562 52.61289063 23.16734375 53.29609375 23 54 C17.9780525 53.45060359 13.97372139 51.78446723 9.5625 49.4375 C8.93279297 49.12748047 8.30308594 48.81746094 7.65429688 48.49804688 C2.3840616 45.71939251 -2.01145833 42.22710092 -5 37 C-5.92321798 33.059383 -5.90451356 29.34251751 -5.75 25.3125 C-5.73130859 24.25482422 -5.71261719 23.19714844 -5.69335938 22.10742188 C-5.39748032 13.93815115 -3.95890579 7.23914201 0 0 Z " fill="#010701" transform="translate(88,23)"/>
<path d="M0 0 C0.94875 0.825 1.8975 1.65 2.875 2.5 C5.78785553 4.99756889 8.74964223 7.42084101 11.75 9.8125 C12.59175781 10.48667969 13.43351562 11.16085938 14.30078125 11.85546875 C16.18314992 13.35101202 18.07738405 14.83168966 19.98046875 16.30078125 C21.44419922 17.45126953 21.44419922 17.45126953 22.9375 18.625 C23.83339844 19.31851563 24.72929688 20.01203125 25.65234375 20.7265625 C28.33965778 23.32891985 29.74663051 25.47576549 31 29 C30.31867419 32.15680959 29.1452341 32.90228076 26.46875 34.703125 C25.4890625 35.21359375 24.509375 35.7240625 23.5 36.25 C22.5203125 36.77078125 21.540625 37.2915625 20.53125 37.828125 C18 39 18 39 16 39 C15.76925781 38.43152344 15.53851563 37.86304688 15.30078125 37.27734375 C13.05906104 31.96987179 10.50308387 27.57347061 7 23 C6.01 23.33 5.02 23.66 4 24 C4.4238706 28.52128642 6.40687706 31.40927171 8.94140625 35.03515625 C10 37 10 37 10 41 C6.6396884 42.01534595 3.56413714 42.13383137 0.0625 42.125 C-0.95714844 42.12757812 -1.97679687 42.13015625 -3.02734375 42.1328125 C-5.79588725 42.00911936 -8.30539535 41.62526738 -11 41 C-9.61420811 31.35142393 -2.27551351 23.83098142 4.375 17.19140625 C6.27765729 15.1442457 6.27765729 15.1442457 5.75 12.71484375 C5.5025 12.14894531 5.255 11.58304688 5 11 C3.02 11.66 1.04 12.32 -1 13 C-2.5625 11.8125 -2.5625 11.8125 -4 10 C-3.79085853 6.02631205 -2.15493022 3.27924164 0 0 Z " fill="#010B01" transform="translate(64,70)"/>
<path d="M0 0 C0.70576172 1.44632812 0.70576172 1.44632812 1.42578125 2.921875 C2.05447179 4.19802296 2.68339007 5.47405874 3.3125 6.75 C3.7755957 7.70132813 3.7755957 7.70132813 4.24804688 8.671875 C5.59010697 11.3842491 6.87761672 13.84962055 8.79296875 16.203125 C10 18 10 18 9.89453125 19.953125 C8.78309983 22.49631306 7.34391634 24.52252792 5.6875 26.75 C2.60896005 31.01941548 0.20880154 35.22898866 -2 40 C-3.96534541 39.09846541 -5.92210625 38.17819891 -7.875 37.25 C-9.51082031 36.48429687 -9.51082031 36.48429687 -11.1796875 35.703125 C-14.04202519 33.97462191 -14.93521458 33.10000819 -16 30 C-11.08205253 23.73043121 -5.68665672 19.30529205 1 15 C0.67 13.35 0.34 11.7 0 10 C-7.71909968 14.48717757 -13.95905595 19.42208315 -20 26 C-23.49107379 24.83630874 -23.85222763 24.11026462 -25.6875 21.0625 C-26.12449219 20.35222656 -26.56148437 19.64195313 -27.01171875 18.91015625 C-28 17 -28 17 -28 15 C-27.46109131 14.72325439 -26.92218262 14.44650879 -26.36694336 14.16137695 C-23.88751585 12.88404778 -21.41252167 11.59834398 -18.9375 10.3125 C-18.08994141 9.87744141 -17.24238281 9.44238281 -16.36914062 8.99414062 C-12.39520094 6.9227821 -8.61882629 4.82503339 -5.00390625 2.16796875 C-2 0 -2 0 0 0 Z " fill="#010D01" transform="translate(49,69)"/>
<path d="M0 0 C0.10181508 6.68932017 0.17163915 13.37843887 0.21972656 20.06835938 C0.23978317 22.34187284 0.26703538 24.6153351 0.30175781 26.88867188 C0.35053712 30.16549349 0.37302897 33.44163025 0.390625 36.71875 C0.41127014 37.72740112 0.43191528 38.73605225 0.45318604 39.77526855 C0.4552391 46.30154505 -0.63494714 50.38769731 -4 56 C-4.66 56 -5.32 56 -6 56 C-8.41131298 48.38025099 -9.34531896 41.06103621 -9.9375 33.125 C-10.53516643 25.28104268 -11.64165603 18.27509537 -14.09765625 10.77734375 C-14.93759562 8.19207581 -15.52419975 5.67331069 -16 3 C-14.65104264 2.48611148 -13.29543517 1.98967278 -11.9375 1.5 C-11.18339844 1.2215625 -10.42929687 0.943125 -9.65234375 0.65625 C-6.38414464 -0.15237658 -3.35582451 -0.04128129 0 0 Z " fill="#010A01" transform="translate(61,16)"/>
<path d="M0 0 C1.59176303 0.12657893 3.18278373 0.26251392 4.7734375 0.40234375 C5.65950684 0.47702881 6.54557617 0.55171387 7.45849609 0.62866211 C10.70910652 1.10360721 13.20452945 2.30800467 16 4 C15.70996094 4.92619141 15.70996094 4.92619141 15.4140625 5.87109375 C15.15367188 6.71800781 14.89328125 7.56492187 14.625 8.4375 C14.36976562 9.26121094 14.11453125 10.08492187 13.8515625 10.93359375 C11.52487623 19.31179891 10.48164154 27.432746 9.87695312 36.09570312 C9.36287992 42.38036389 8.03323618 48.03343435 6 54 C2.28514769 50.65663292 0.2276658 47.91771694 -0.17047119 42.8152771 C-0.23165077 40.09714172 -0.2245908 37.38663744 -0.1953125 34.66796875 C-0.1924826 33.67622147 -0.18965271 32.68447418 -0.18673706 31.66267395 C-0.17556804 28.50415841 -0.15046927 25.34592943 -0.125 22.1875 C-0.11496597 20.04232181 -0.10584086 17.89713917 -0.09765625 15.75195312 C-0.07563945 10.50120479 -0.04219443 5.25062287 0 0 Z " fill="#010701" transform="translate(67,16)"/>
<path d="M0 0 C4.47531744 3.80401983 7.06658821 8.52894936 7.625 14.3125 C7.67785156 15.1478125 7.73070313 15.983125 7.78515625 16.84375 C8.12280324 21.80409124 8.7578575 26.73053433 9.34033203 31.66723633 C9.77334328 35.46779329 10.11477038 39.16666933 10 43 C9.34 43 8.68 43 8 43 C8.12375 43.9075 8.2475 44.815 8.375 45.75 C8.42373618 51.67144571 5.00009452 57.0723836 2 62 C1.01 62.495 1.01 62.495 0 63 C-0.33 63.99 -0.66 64.98 -1 66 C-2.32338632 66.68620031 -3.65949948 67.34786461 -5 68 C-7.06722076 69.59716811 -9.02157854 71.29136328 -11 73 C-13 71 -13 71 -13.125 67.375 C-13.063125 65.704375 -13.063125 65.704375 -13 64 C-11.081875 63.6596875 -11.081875 63.6596875 -9.125 63.3125 C-6.91499716 62.83367314 -6.91499716 62.83367314 -5 62 C-3.84478498 59.52869082 -3.84478498 59.52869082 -3 57 C0.125 55.6875 0.125 55.6875 3 55 C2.01 54.67 1.02 54.34 0 54 C0.33 52.68 0.66 51.36 1 50 C0.01 49.67 -0.98 49.34 -2 49 C-1.67 48.01 -1.34 47.02 -1 46 C1.0625 45.3125 1.0625 45.3125 3 45 C3.11727273 40.85440907 3.18760933 36.70925138 3.25 32.5625 C3.28351563 31.39783203 3.31703125 30.23316406 3.3515625 29.03320312 C3.4345911 21.66441474 2.57151054 16.44136608 -1 10 C-2.4375 6.6875 -2.4375 6.6875 -3 4 C-1.625 1.625 -1.625 1.625 0 0 Z M5 11 C6 13 6 13 6 13 Z M6 48 C7 50 7 50 7 50 Z " fill="#1EC30D" transform="translate(109,32)"/>
<path d="M0 0 C6.19887485 -0.37952295 10.4477112 0.1647887 16 3 C16.33 2.01 16.66 1.02 17 0 C21.10104002 0.55557761 23.60373112 1.82735595 26.9375 4.25 C27.80375 4.87777344 28.67 5.50554688 29.5625 6.15234375 C32.45983221 8.34855871 35.23524161 10.6398404 38 13 C38.99 13.66 39.98 14.32 41 15 C40.38125 16.485 40.38125 16.485 39.75 18 C38.77789167 21.34162239 39.14393911 22.99799412 40.75 26.0625 C41.11609375 26.67222656 41.4821875 27.28195313 41.859375 27.91015625 C45.39252604 34.38356655 45.3039018 40.48711758 45.25 47.6875 C45.26160156 49.25467773 45.26160156 49.25467773 45.2734375 50.85351562 C45.27085938 51.85447266 45.26828125 52.85542969 45.265625 53.88671875 C45.26336914 54.79639404 45.26111328 55.70606934 45.25878906 56.64331055 C45 59 45 59 43 62 C43.02320313 60.74445313 43.04640625 59.48890625 43.0703125 58.1953125 C43.29536971 41.38824169 41.79500137 27.49770013 29.66796875 14.62109375 C26.59876676 11.63814568 24.08240515 9.36080172 20 8 C20 8.66 20 9.32 20 10 C19.01 10 18.02 10 17 10 C16.86722656 10.98097656 16.73445313 11.96195313 16.59765625 12.97265625 C16.00060572 17.15200993 15.23028345 21.29150806 14.4375 25.4375 C14.22963867 26.53481445 14.22963867 26.53481445 14.01757812 27.65429688 C13.6797819 29.43646318 13.34009012 31.21827002 13 33 C9.27982062 26.98249869 10.242682 18.51955879 11.67578125 11.859375 C12.37628326 9.53543469 13.12398944 7.26302727 14 5 C13.32453125 4.80664062 12.6490625 4.61328125 11.953125 4.4140625 C10.61507812 4.02347656 10.61507812 4.02347656 9.25 3.625 C8.36828125 3.36976562 7.4865625 3.11453125 6.578125 2.8515625 C4.23919428 2.0790066 2.16557438 1.16374324 0 0 Z " fill="#23BB14" transform="translate(68,15)"/>
<path d="M0 0 C0.78310547 0.54527344 0.78310547 0.54527344 1.58203125 1.1015625 C6.70286959 4.59915786 11.93430166 7.68693338 17.40234375 10.609375 C20.64017886 12.34271229 23.82023509 14.1628025 27 16 C26.54300722 21.02692063 24.00758252 24.14896261 21 28 C18 27 18 27 16.4375 24.4375 C12.03194123 17.38860597 3.72167979 12.67595116 -3 8 C-1.125 1.125 -1.125 1.125 0 0 Z " fill="#010F01" transform="translate(80,67)"/>
<path d="M0 0 C0.33 0 0.66 0 1 0 C1.00364563 0.54599854 1.00729126 1.09199707 1.01104736 1.65454102 C1.05303651 7.36565886 1.12249548 13.0759853 1.20751953 18.78662109 C1.23564943 20.91447005 1.25690346 23.04242194 1.27099609 25.17041016 C1.29253608 28.2391398 1.33924371 31.30664211 1.390625 34.375 C1.39246796 35.78954468 1.39246796 35.78954468 1.39434814 37.23266602 C1.53220841 43.52720517 2.80248302 47.56310702 6 53 C8.49089251 46.39355035 9.61330692 40.28327153 10.125 33.25 C10.2711621 31.42169167 10.41952788 29.5935579 10.5703125 27.765625 C10.65949951 26.57114746 10.65949951 26.57114746 10.75048828 25.35253906 C11.01500621 22.85851286 11.47340521 20.45092104 12 18 C12.33 18 12.66 18 13 18 C13.33 21.3 13.66 24.6 14 28 C15.65 21.73 17.3 15.46 19 9 C19.66 9 20.32 9 21 9 C20.79141357 9.65266846 20.58282715 10.30533691 20.36791992 10.9777832 C18.2335699 18.11986538 17.47933344 24.756262 17.3125 32.1875 C17.27833984 33.23486328 17.24417969 34.28222656 17.20898438 35.36132812 C17.12760165 37.90744469 17.05810653 40.45326444 17 43 C16.34 42.67 15.68 42.34 15 42 C14.375 39.9375 14.375 39.9375 14 38 C10.59791172 41.40208828 10.94566173 45.77178592 10.9375 50.375 C10.958125 51.57125 10.97875 52.7675 11 54 C11.66 53.34 12.32 52.68 13 52 C12.49019669 55.77254453 11.79299818 57.44987123 9 60 C8.8509288 62.0745356 8.8509288 62.0745356 10 64 C6.54798361 62.52278578 4.35038064 60.56205999 1.75 57.875 C1.04359375 57.15054688 0.3371875 56.42609375 -0.390625 55.6796875 C-0.92171875 55.12539062 -1.4528125 54.57109375 -2 54 C-0.68 53.34 0.64 52.68 2 52 C1.67402832 51.22962402 1.34805664 50.45924805 1.01220703 49.66552734 C-0.32439609 44.82525738 -0.24819451 40.34759689 -0.1953125 35.3515625 C-0.1924826 34.33903412 -0.18965271 33.32650574 -0.18673706 32.28329468 C-0.17558254 29.06374062 -0.15048646 25.84446935 -0.125 22.625 C-0.1149641 20.43620195 -0.10583931 18.24739951 -0.09765625 16.05859375 C-0.0756587 10.70563342 -0.04222824 5.35283692 0 0 Z " fill="#30AF23" transform="translate(66,16)"/>
<path d="M0 0 C0.66 1.65 1.32 3.3 2 5 C1.19175781 5.58007812 0.38351563 6.16015625 -0.44921875 6.7578125 C-8.59315865 12.49617899 -8.59315865 12.49617899 -15 20 C-14.0022242 22.99332739 -13.2477975 23.94766315 -11 26 C-14.875 25.125 -14.875 25.125 -16 24 C-16.66 24.66 -17.32 25.32 -18 26 C-21.86085606 24.42705864 -24.44222339 22.28856993 -27 19 C-26.8125 15.1875 -26.8125 15.1875 -26 12 C-23 13 -23 13 -22 15 C-18.6902684 13.57212906 -16.68761403 11.82153334 -14.25 9.1875 C-5.31352459 0 -5.31352459 0 0 0 Z " fill="#24BF12" transform="translate(49,79)"/>
<path d="M0 0 C0.33 0 0.66 0 1 0 C1.08302368 0.86165771 1.08302368 0.86165771 1.16772461 1.74072266 C1.4221876 4.36902619 1.67981811 6.99701018 1.9375 9.625 C2.02451172 10.52863281 2.11152344 11.43226562 2.20117188 12.36328125 C2.65251386 16.94356654 3.1647042 21.4698372 4 26 C6.46800047 24.84826645 8.04783565 23.95216435 10 22 C9.67 26.62 9.34 31.24 9 36 C7.68 35.34 6.36 34.68 5 34 C5 32.68 5 31.36 5 30 C3.35 30 1.7 30 0 30 C-0.99 27.03 -1.98 24.06 -3 21 C-3.66 21 -4.32 21 -5 21 C-4.34 19.35 -3.68 17.7 -3 16 C-3.66 15.67 -4.32 15.34 -5 15 C-4.34 14.34 -3.68 13.68 -3 13 C-2.357366 10.93838264 -2.357366 10.93838264 -1.9375 8.625 C-1.35168758 5.72982788 -0.73802261 2.86065401 0 0 Z " fill="#26B717" transform="translate(51,46)"/>
<path d="M0 0 C5.16102792 2.10471421 7.42552504 6.24160511 10 11 C10.875 14.5625 10.875 14.5625 11 17 C9.35 17.33 7.7 17.66 6 18 C6 18.99 6 19.98 6 21 C-0.93 21 -7.86 21 -15 21 C-15 20.34 -15 19.68 -15 19 C-8.4 19 -1.8 19 5 19 C4.401875 17.4325 3.80375 15.865 3.1875 14.25 C2.85105469 13.36828125 2.51460937 12.4865625 2.16796875 11.578125 C1.09524107 8.95999322 1.09524107 8.95999322 -0.65234375 6.80859375 C-2 5 -2 5 -1.75 2.8125 C-1 1 -1 1 0 0 Z " fill="#2DB01E" transform="translate(69,92)"/>
<path d="M0 0 C0.66 1.65 1.32 3.3 2 5 C-3.33333333 9 -8.66666667 13 -14 17 C-13.67 16.01 -13.34 15.02 -13 14 C-14.65 14 -16.3 14 -18 14 C-14.05023785 8.90688564 -6.9976633 0 0 0 Z " fill="#2EAF20" transform="translate(49,79)"/>
<path d="M0 0 C7.48291572 6.15034169 7.48291572 6.15034169 10 10 C9.34 10 8.68 10 8 10 C7.67 11.32 7.34 12.64 7 14 C6.34 13.01 5.68 12.02 5 11 C3.02 11.66 1.04 12.32 -1 13 C-2.5625 11.8125 -2.5625 11.8125 -4 10 C-3.79085853 6.02631205 -2.15493022 3.27924164 0 0 Z " fill="#031802" transform="translate(64,70)"/>
<path d="M0 0 C1.65 0 3.3 0 5 0 C4.01 0.33 3.02 0.66 2 1 C2.0407666 2.31718018 2.0815332 3.63436035 2.12353516 4.99145508 C2.2718533 9.87204725 2.40655208 14.75293627 2.53710938 19.6340332 C2.59555754 21.7477463 2.65771362 23.86136022 2.72363281 25.97485352 C2.81766979 29.01039576 2.89842601 32.04604332 2.9765625 35.08203125 C3.00875885 36.02899368 3.0409552 36.97595612 3.0741272 37.95161438 C3.09429901 38.83230087 3.11447083 39.71298737 3.13525391 40.62036133 C3.16856308 41.78285149 3.16856308 41.78285149 3.20254517 42.96882629 C3 45 3 45 1 48 C0.05662624 45.16987873 -0.12172829 43.45700082 -0.11352539 40.52856445 C-0.11344986 39.62785721 -0.11337433 38.72714996 -0.11329651 37.79914856 C-0.10813522 36.83031235 -0.10297394 35.86147614 -0.09765625 34.86328125 C-0.0962413 33.86870407 -0.09482635 32.87412689 -0.09336853 31.84941101 C-0.08776761 28.67041018 -0.07521496 25.49147957 -0.0625 22.3125 C-0.05748512 20.15820414 -0.05292219 18.00390718 -0.04882812 15.84960938 C-0.03779788 10.56638226 -0.02105886 5.28319615 0 0 Z " fill="#002B00" transform="translate(67,16)"/>
<path d="M0 0 C0.33 0 0.66 0 1 0 C1.0928125 1.485 1.0928125 1.485 1.1875 3 C1.73617723 7.1446234 3.64952457 9.9409061 6.0390625 13.30078125 C6.35617188 13.86152344 6.67328125 14.42226562 7 15 C6.67 15.66 6.34 16.32 6 17 C5.34 17 4.68 17 4 17 C4 16.34 4 15.68 4 15 C2.68 15 1.36 15 0 15 C0 15.66 0 16.32 0 17 C-0.66 17 -1.32 17 -2 17 C-2.33 17.99 -2.66 18.98 -3 20 C-3.33 20 -3.66 20 -4 20 C-4.29667051 12.73157242 -3.63187878 6.48549783 0 0 Z " fill="#20C10F" transform="translate(80,51)"/>
<path d="M0 0 C0 1.32 0 2.64 0 4 C-0.639375 4.103125 -1.27875 4.20625 -1.9375 4.3125 C-2.618125 4.539375 -3.29875 4.76625 -4 5 C-4.33 5.99 -4.66 6.98 -5 8 C-5.66 8 -6.32 8 -7 8 C-7.33 9.32 -7.66 10.64 -8 12 C-9.32 12.33 -10.64 12.66 -12 13 C-12 14.32 -12 15.64 -12 17 C-12.66 17 -13.32 17 -14 17 C-14 16.34 -14 15.68 -14 15 C-14.99 14.67 -15.98 14.34 -17 14 C-15.62339761 9.04423141 -13.25379145 7.66904561 -9 5 C-8.13375 4.0925 -7.2675 3.185 -6.375 2.25 C-4 0 -4 0 0 0 Z " fill="#1EC70E" transform="translate(34,21)"/>
<path d="M0 0 C1.32 0 2.64 0 4 0 C4 0.66 4 1.32 4 2 C3.01 2 2.02 2 1 2 C0.67 2.99 0.34 3.98 0 5 C-2.98459129 6.95542188 -4.26414791 7 -8 7 C-8 7.66 -8 8.32 -8 9 C-9.62626404 10.38232443 -11.2925002 11.71937515 -13 13 C-13.12375 12.360625 -13.2475 11.72125 -13.375 11.0625 C-13.58125 10.381875 -13.7875 9.70125 -14 9 C-14.66 8.67 -15.32 8.34 -16 8 C-16 8.99 -16 9.98 -16 11 C-16.99 10.67 -17.98 10.34 -19 10 C-18.67 8.68 -18.34 7.36 -18 6 C-17.13375 5.896875 -16.2675 5.79375 -15.375 5.6875 C-11.9567269 5.15264681 -11.9567269 5.15264681 -9 3.4375 C-5.7137621 1.86284434 -3.59459013 1.74324356 0 2 C0 1.34 0 0.68 0 0 Z " fill="#2BB71C" transform="translate(36,71)"/>
<path d="M0 0 C5.41968475 1.47809584 8.35206609 3.33191653 11.3125 8.125 C11.6528125 9.053125 11.6528125 9.053125 12 10 C11.67 10.66 11.34 11.32 11 12 C11.99 12 12.98 12 14 12 C14 12.66 14 13.32 14 14 C13.34 14 12.68 14 12 14 C11.67 14.66 11.34 15.32 11 16 C10.01 15.67 9.02 15.34 8 15 C7.814375 16.2065625 7.814375 16.2065625 7.625 17.4375 C7.41875 18.283125 7.2125 19.12875 7 20 C6.34 20.33 5.68 20.66 5 21 C5.66498383 16.61110675 7.18757677 13.0188515 9 9 C8.2575 8.7525 7.515 8.505 6.75 8.25 C3.75026545 6.8864843 2.07922733 5.54127785 0 3 C0 2.01 0 1.02 0 0 Z " fill="#28B31A" transform="translate(98,74)"/>
<path d="M0 0 C0.33 0 0.66 0 1 0 C1 17.82 1 35.64 1 54 C1.66 54 2.32 54 3 54 C1.25 58.875 1.25 58.875 -1 60 C-1 58.02 -1 56.04 -1 54 C-1.99 54.66 -2.98 55.32 -4 56 C-2.125 50.25 -2.125 50.25 -1 48 C-0.88177029 46.45857825 -0.82300189 44.91238903 -0.79467773 43.36669922 C-0.7647599 41.92543167 -0.7647599 41.92543167 -0.73423767 40.45504761 C-0.71752518 39.41542877 -0.70081268 38.37580994 -0.68359375 37.3046875 C-0.6524221 35.71081711 -0.6524221 35.71081711 -0.62062073 34.08474731 C-0.55509739 30.68156562 -0.49622727 27.27830511 -0.4375 23.875 C-0.39431743 21.57160634 -0.35070323 19.26822074 -0.30664062 16.96484375 C-0.19941318 11.30997979 -0.09765198 5.65503697 0 0 Z " fill="#309625" transform="translate(61,16)"/>
<path d="M0 0 C0.33 0 0.66 0 1 0 C1.04898438 1.26714844 1.09796875 2.53429688 1.1484375 3.83984375 C1.22354191 5.53908096 1.29908632 7.23829876 1.375 8.9375 C1.42140625 10.18370117 1.42140625 10.18370117 1.46875 11.45507812 C1.73617703 17.18247369 2.61822587 22.43358471 4 28 C2.02 28.66 0.04 29.32 -2 30 C-1.85908107 26.68727224 -1.71134606 23.37488029 -1.5625 20.0625 C-1.50352539 18.67321289 -1.50352539 18.67321289 -1.44335938 17.25585938 C-1.17920879 11.46486581 -0.70235691 5.75460497 0 0 Z " fill="#1EC109" transform="translate(64,40)"/>
<path d="M0 0 C2 3 2 3 2 5 C4.91517292 3.92598892 6.77810176 3.22189824 9 1 C8.67 5.62 8.34 10.24 8 15 C6.68 14.34 5.36 13.68 4 13 C4 11.68 4 10.36 4 9 C2.68 9 1.36 9 0 9 C-0.87890625 2.84765625 -0.87890625 2.84765625 -1 1 C-0.67 0.67 -0.34 0.34 0 0 Z " fill="#1EC110" transform="translate(52,67)"/>
<path d="M0 0 C-0.56847656 0.38929687 -1.13695313 0.77859375 -1.72265625 1.1796875 C-9.98657575 7.16723518 -15.4630693 14.42948163 -19 24 C-19.33 23.34 -19.66 22.68 -20 22 C-20.66 22 -21.32 22 -22 22 C-22 21.34 -22 20.68 -22 20 C-21.34 20 -20.68 20 -20 20 C-19.87625 19.360625 -19.7525 18.72125 -19.625 18.0625 C-19.41875 17.381875 -19.2125 16.70125 -19 16 C-18.34 15.67 -17.68 15.34 -17 15 C-16.814375 13.7934375 -16.814375 13.7934375 -16.625 12.5625 C-16.41875 11.716875 -16.2125 10.87125 -16 10 C-14 8.875 -14 8.875 -12 8 C-11.67 7.01 -11.34 6.02 -11 5 C-10.34 5 -9.68 5 -9 5 C-8.938125 4.38125 -8.87625 3.7625 -8.8125 3.125 C-8 1 -8 1 -5.625 -0.3125 C-3 -1 -3 -1 0 0 Z " fill="#2EAF20" transform="translate(38,24)"/>
<path d="M0 0 C0.66 0.66 1.32 1.32 2 2 C4 1.66666667 6 1.33333333 8 1 C10.70614692 1.18495249 13.31513828 1.58338353 16 2 C16 2.33 16 2.66 16 3 C4.47835991 5.11161731 4.47835991 5.11161731 -1 6 C-0.505 7.1446875 -0.505 7.1446875 0 8.3125 C1 11 1 11 1 14 C0.34 14 -0.32 14 -1 14 C-1.41846009 12.42249576 -1.80896389 10.83755752 -2.1875 9.25 C-2.40792969 8.36828125 -2.62835938 7.4865625 -2.85546875 6.578125 C-3 4 -3 4 -1.55078125 1.671875 C-1.03902344 1.12015625 -0.52726562 0.5684375 0 0 Z " fill="#2FB51E" transform="translate(46,13)"/>
<path d="M0 0 C0.66 0.33 1.32 0.66 2 1 C2.19647038 3.68711024 2.38239615 6.37428331 2.5625 9.0625 C2.61857422 9.81466797 2.67464844 10.56683594 2.73242188 11.34179688 C3.03921924 16.06647636 3.00795969 20.35855687 2 25 C1.34 25.33 0.68 25.66 0 26 C-0.19625099 22.04204914 -0.38051982 18.08363065 -0.5625 14.125 C-0.61857422 12.99707031 -0.67464844 11.86914062 -0.73242188 10.70703125 C-0.80493164 9.09248047 -0.80493164 9.09248047 -0.87890625 7.4453125 C-0.9260376 6.45031738 -0.97316895 5.45532227 -1.02172852 4.43017578 C-1 2 -1 2 0 0 Z " fill="#1FC00B" transform="translate(47,34)"/>
<path d="M0 0 C6.10849414 -0.37398944 10.64285578 -0.1250008 16 3 C17.0625 4.8125 17.0625 4.8125 17 7 C16.0625 10.25 16.0625 10.25 15 13 C14.34 13 13.68 13 13 13 C12.67 14.98 12.34 16.96 12 19 C10.74872094 15.45332822 11.27714947 13.27746562 12.4375 9.75 C12.86869141 8.41195313 12.86869141 8.41195313 13.30859375 7.046875 C13.53675781 6.37140625 13.76492187 5.6959375 14 5 C13.32453125 4.80664062 12.6490625 4.61328125 11.953125 4.4140625 C10.61507812 4.02347656 10.61507812 4.02347656 9.25 3.625 C8.36828125 3.36976562 7.4865625 3.11453125 6.578125 2.8515625 C4.23919428 2.0790066 2.16557438 1.16374324 0 0 Z " fill="#2FA924" transform="translate(68,15)"/>
<path d="M0 0 C0.66 0.33 1.32 0.66 2 1 C1.67 1.99 1.34 2.98 1 4 C0.34 4 -0.32 4 -1 4 C-1 6.31 -1 8.62 -1 11 C-1.99 10.67 -2.98 10.34 -4 10 C-4 9.01 -4 8.02 -4 7 C-4.8971875 7.309375 -4.8971875 7.309375 -5.8125 7.625 C-8 8 -8 8 -11 6 C-9.21385682 4.96953278 -7.42089982 3.95086764 -5.625 2.9375 C-4.62726562 2.36902344 -3.62953125 1.80054688 -2.6015625 1.21484375 C-1.74304687 0.81394531 -0.88453125 0.41304687 0 0 Z " fill="#1AC309" transform="translate(44,13)"/>
<path d="M0 0 C0.99 0 1.98 0 3 0 C3.40528634 10.33480176 3.40528634 10.33480176 1 14 C-1.625 14.8125 -1.625 14.8125 -4 15 C-3.52889625 12.05560156 -2.42920816 9.9920924 -0.875 7.5 C1.26036555 4.29833256 1.26036555 4.29833256 0.75 1.5625 C0.5025 1.046875 0.255 0.53125 0 0 Z " fill="#20BC0E" transform="translate(59,84)"/>
<path d="M0 0 C0.66 0.66 1.32 1.32 2 2 C1.01 2.495 1.01 2.495 0 3 C0.33 4.32 0.66 5.64 1 7 C0.01 7.66 -0.98 8.32 -2 9 C-2.72965366 11.56282742 -2.72965366 11.56282742 -3 14 C-3.33 13.01 -3.66 12.02 -4 11 C-5.65 11 -7.3 11 -9 11 C-8.06558465 9.72689688 -7.12732889 8.456612 -6.1875 7.1875 C-5.66542969 6.47980469 -5.14335938 5.77210937 -4.60546875 5.04296875 C-3.16871123 3.21468607 -1.68184237 1.60103312 0 0 Z " fill="#011F00" transform="translate(70,85)"/>
<path d="M0 0 C4.62 2.31 9.24 4.62 14 7 C13.01 7.495 13.01 7.495 12 8 C9.6171875 7.00390625 9.6171875 7.00390625 6.875 5.5625 C5.96492188 5.08941406 5.05484375 4.61632812 4.1171875 4.12890625 C3.41851562 3.75636719 2.71984375 3.38382812 2 3 C2.9977758 5.99332739 3.7522025 6.94766315 6 9 C2.08788267 7.84414715 -0.8745041 6.64465038 -4 4 C-2.68 3.34 -1.36 2.68 0 2 C0 1.34 0 0.68 0 0 Z " fill="#31A822" transform="translate(96,71)"/>
<path d="M0 0 C0.66 0 1.32 0 2 0 C3.7143618 1.95927063 5.38405168 3.95880212 7 6 C6.01 6 5.02 6 4 6 C4 6.66 4 7.32 4 8 C0.75791433 7.64950425 -0.61527704 7.43778819 -2.8125 4.9375 C-3.4003125 3.9784375 -3.4003125 3.9784375 -4 3 C-2.68 2.67 -1.36 2.34 0 2 C0 1.34 0 0.68 0 0 Z " fill="#28BA17" transform="translate(68,66)"/>
<path d="M0 0 C1.125 3.75 1.125 3.75 0 6 C-0.680625 6.2475 -1.36125 6.495 -2.0625 6.75 C-6.20448003 8.51254469 -9.48273271 11.22458809 -13 14 C-13.66 13.67 -14.32 13.34 -15 13 C-7.43842812 6.16771678 -7.43842812 6.16771678 -3.5625 3.6875 C-0.91744289 2.252416 -0.91744289 2.252416 0 0 Z " fill="#001A00" transform="translate(51,82)"/>
<path d="M0 0 C1.98 0.66 3.96 1.32 6 2 C6 2.66 6 3.32 6 4 C7.32 4.66 8.64 5.32 10 6 C9.01 6.99 8.02 7.98 7 9 C6.566875 8.525625 6.13375 8.05125 5.6875 7.5625 C3.97690387 5.76313043 3.97690387 5.76313043 1 5 C-0.1875 2.9375 -0.1875 2.9375 -1 1 C-0.67 0.67 -0.34 0.34 0 0 Z " fill="#23BE0D" transform="translate(82,81)"/>
<path d="M0 0 C2.375 0.25 2.375 0.25 5 1 C6.3125 3.0625 6.3125 3.0625 7 5 C6 6 6 6 2.9375 6.0625 C1.968125 6.041875 0.99875 6.02125 0 6 C-1.125 2.25 -1.125 2.25 0 0 Z " fill="#28B426" transform="translate(90,69)"/>
<path d="M0 0 C3.26460973 1.80412643 4.88929795 2.83394693 7 6 C6.01 6.495 6.01 6.495 5 7 C4.67 8.32 4.34 9.64 4 11 C1.36 8.69 -1.28 6.38 -4 4 C-1 4 -1 4 2 6 C2 5.01 2 4.02 2 3 C1.34 2.67 0.68 2.34 0 2 C0 1.34 0 0.68 0 0 Z " fill="#31A925" transform="translate(88,83)"/>
<path d="M0 0 C0.66 0.33 1.32 0.66 2 1 C1.43410156 1.33773437 0.86820313 1.67546875 0.28515625 2.0234375 C-0.44832031 2.46945313 -1.18179688 2.91546875 -1.9375 3.375 C-3.03384766 4.03628906 -3.03384766 4.03628906 -4.15234375 4.7109375 C-6.13772272 5.8773984 -6.13772272 5.8773984 -7 8 C-6.34 8 -5.68 8 -5 8 C-5.33 8.99 -5.66 9.98 -6 11 C-6.99 11 -7.98 11 -9 11 C-9 10.01 -9 9.02 -9 8 C-9.66 7.34 -10.32 6.68 -11 6 C-9.21385682 4.96953278 -7.42089982 3.95086764 -5.625 2.9375 C-4.62726563 2.36902344 -3.62953125 1.80054687 -2.6015625 1.21484375 C-1.74304688 0.81394531 -0.88453125 0.41304688 0 0 Z " fill="#29B619" transform="translate(91,103)"/>
<path d="M0 0 C3 1 3 1 4 3 C5.32 2.67 6.64 2.34 8 2 C7.67 3.32 7.34 4.64 7 6 C4.03 5.505 4.03 5.505 1 5 C0.67 5.99 0.34 6.98 0 8 C-0.79953138 4.71303767 -1.09658936 3.28976808 0 0 Z " fill="#2CB417" transform="translate(23,91)"/>
<path d="M0 0 C1.32 0 2.64 0 4 0 C4 0.66 4 1.32 4 2 C3.01 2 2.02 2 1 2 C0.67 2.99 0.34 3.98 0 5 C-3.0625 6.1875 -3.0625 6.1875 -6 7 C-6 4 -6 4 -4 2 C-2.68 2 -1.36 2 0 2 C0 1.34 0 0.68 0 0 Z " fill="#24C014" transform="translate(36,71)"/>
<path d="M0 0 C0.66 0 1.32 0 2 0 C2.33 2.31 2.66 4.62 3 7 C2.34 7 1.68 7 1 7 C0.34 7.66 -0.32 8.32 -1 9 C-1 8.34 -1 7.68 -1 7 C-1.66 7 -2.32 7 -3 7 C-3 5.35 -3 3.7 -3 2 C-2.01 2 -1.02 2 0 2 C0 1.34 0 0.68 0 0 Z " fill="#19C909" transform="translate(116,68)"/>
<path d="M0 0 C2.31 0 4.62 0 7 0 C6.67 1.98 6.34 3.96 6 6 C5.01 6 4.02 6 3 6 C0 2.66666667 0 2.66666667 0 0 Z " fill="#26B819" transform="translate(101,32)"/>
<path d="M0 0 C-0.66 0.66 -1.32 1.32 -2 2 C-2.24253813 4.21072977 -2.24253813 4.21072977 -2.125 6.625 C-2.10695312 7.44226562 -2.08890625 8.25953125 -2.0703125 9.1015625 C-2.04710937 9.72804688 -2.02390625 10.35453125 -2 11 C-4.44839588 7.32740617 -6 4.45351799 -6 0 C-3.50907189 -1.24546405 -2.58919267 -0.7767578 0 0 Z " fill="#012200" transform="translate(51,19)"/>
<path d="M0 0 C4.20626034 1.50223584 5.73900021 4.28550034 8 8 C7.67 8.66 7.34 9.32 7 10 C3 5.25 3 5.25 3 3 C1.68 3 0.36 3 -1 3 C-1.33 3.66 -1.66 4.32 -2 5 C-1.125 1.125 -1.125 1.125 0 0 Z " fill="#37A629" transform="translate(69,92)"/>
<path d="M0 0 C5.66153846 1.47692308 5.66153846 1.47692308 7.375 4.125 C7.684375 5.053125 7.684375 5.053125 8 6 C4.62537285 5.45276317 2.91765 4.9451 0 3 C0 2.01 0 1.02 0 0 Z " fill="#1EC109" transform="translate(98,74)"/>
<path d="M0 0 C0.66 0 1.32 0 2 0 C2 1.32 2 2.64 2 4 C2.66 4 3.32 4 4 4 C4 3.01 4 2.02 4 1 C4.99 1.33 5.98 1.66 7 2 C6.01 3.98 5.02 5.96 4 8 C3.34 8 2.68 8 2 8 C1.34 5.36 0.68 2.72 0 0 Z " fill="#023001" transform="translate(53,64)"/>
<path d="M0 0 C0.66 0.66 1.32 1.32 2 2 C1.01 2.33 0.02 2.66 -1 3 C-1.928125 4.2375 -1.928125 4.2375 -2.875 5.5 C-5.27135597 8.31924232 -6.3967764 8.69973137 -10 9 C-7.12505529 5.01930733 -4.17882671 2.56428003 0 0 Z " fill="#022600" transform="translate(38,23)"/>
<path d="M0 0 C1.093125 0.515625 2.18625 1.03125 3.3125 1.5625 C6.86527247 3.40002112 6.86527247 3.40002112 10 2 C9.67 2.99 9.34 3.98 9 5 C6.03 4.67 3.06 4.34 0 4 C0 2.68 0 1.36 0 0 Z " fill="#33AF22" transform="translate(39,105)"/>
<path d="M0 0 C0.66 0.33 1.32 0.66 2 1 C-0.97 5.95 -0.97 5.95 -4 11 C-4.33 9.68 -4.66 8.36 -5 7 C-4.34 7 -3.68 7 -3 7 C-2.87625 6.21625 -2.7525 5.4325 -2.625 4.625 C-2 2 -2 2 0 0 Z " fill="#011A00" transform="translate(54,92)"/>
<path d="M0 0 C0 0.99 0 1.98 0 3 C-1.32 3 -2.64 3 -4 3 C-4 3.99 -4 4.98 -4 6 C-4.99 6 -5.98 6 -7 6 C-6.75 4.125 -6.75 4.125 -6 2 C-3.85331506 0.61504198 -2.56128588 0 0 0 Z " fill="#20BF0C" transform="translate(49,81)"/>
<path d="M0 0 C1.32 0 2.64 0 4 0 C2.70700306 2.88437779 1.34058637 4.87219421 -1 7 C-1.04254356 5.00045254 -1.04080783 2.99958364 -1 1 C-0.67 0.67 -0.34 0.34 0 0 Z " fill="#09000A" transform="translate(51,90)"/>
<path d="M0 0 C6.6 0 13.2 0 20 0 C20 0.33 20 0.66 20 1 C13.4 1 6.8 1 0 1 C0 0.67 0 0.34 0 0 Z " fill="#1EAA1D" transform="translate(54,8)"/>
<path d="M0 0 C5.61 0.33 11.22 0.66 17 1 C17 1.33 17 1.66 17 2 C15.10424749 2.02721176 13.20838021 2.04649136 11.3125 2.0625 C9.72888672 2.07990234 9.72888672 2.07990234 8.11328125 2.09765625 C5.27589738 2.00865425 2.7561081 1.64939838 0 1 C0 0.67 0 0.34 0 0 Z " fill="#209B19" transform="translate(53,118)"/>
<path d="M0 0 C0.66 0.33 1.32 0.66 2 1 C2.625 4.0625 2.625 4.0625 3 7 C1.68 7.33 0.36 7.66 -1 8 C-0.67 5.36 -0.34 2.72 0 0 Z " fill="#2AAB14" transform="translate(77,102)"/>
<path d="M0 0 C1.125 3.75 1.125 3.75 0 6 C-0.99 6 -1.98 6 -3 6 C-3.33 5.01 -3.66 4.02 -4 3 C-3.34 2.34 -2.68 1.68 -2 1 C-1.34 1.33 -0.68 1.66 0 2 C0 1.34 0 0.68 0 0 Z " fill="#1DB70D" transform="translate(53,100)"/>
<path d="M0 0 C1.32 1.65 2.64 3.3 4 5 C3.67 5.66 3.34 6.32 3 7 C0.525 6.01 0.525 6.01 -2 5 C-1.34 3.35 -0.68 1.7 0 0 Z " fill="#022201" transform="translate(51,76)"/>
<path d="M0 0 C0.33 0.66 0.66 1.32 1 2 C1.99 2 2.98 2 4 2 C4 3.32 4 4.64 4 6 C3.01 6 2.02 6 1 6 C1 5.01 1 4.02 1 3 C0.34 3 -0.32 3 -1 3 C-0.67 2.01 -0.34 1.02 0 0 Z " fill="#2AB71A" transform="translate(49,104)"/>
<path d="M0 0 C1.485 0.99 1.485 0.99 3 2 C3 3.32 3 4.64 3 6 C1.68 5.34 0.36 4.68 -1 4 C-0.67 2.68 -0.34 1.36 0 0 Z " fill="#1EC20C" transform="translate(74,100)"/>
<path d="M0 0 C0.66 0.66 1.32 1.32 2 2 C0.625 4.5 0.625 4.5 -1 7 C-1.66 7 -2.32 7 -3 7 C-3.33 7.99 -3.66 8.98 -4 10 C-3.43454163 6.04179141 -2.19097652 3.3340947 0 0 Z " fill="#032B00" transform="translate(64,70)"/>
<path d="M0 0 C1.32 0 2.64 0 4 0 C4.33 0.99 4.66 1.98 5 3 C3.35 3.33 1.7 3.66 0 4 C0 2.68 0 1.36 0 0 Z " fill="#1FBF12" transform="translate(92,71)"/>
<path d="M0 0 C0.33 1.32 0.66 2.64 1 4 C1.66 4 2.32 4 3 4 C1.25 8.875 1.25 8.875 -1 10 C-0.67 6.7 -0.34 3.4 0 0 Z " fill="#2EB31D" transform="translate(61,66)"/>
<path d="M0 0 C0.33 0.66 0.66 1.32 1 2 C0.0625 4.625 0.0625 4.625 -1 7 C-2.32 5.68 -3.64 4.36 -5 3 C-4.34 2.67 -3.68 2.34 -3 2 C-2.34 2.33 -1.68 2.66 -1 3 C-0.67 2.01 -0.34 1.02 0 0 Z " fill="#002C00" transform="translate(74,63)"/>
<path d="M0 0 C0.33 0 0.66 0 1 0 C1 4.29 1 8.58 1 13 C0.67 13 0.34 13 0 13 C0 8.71 0 4.42 0 0 Z " fill="#26A824" transform="translate(119,57)"/>
<path d="M0 0 C0.33 0 0.66 0 1 0 C1 4.29 1 8.58 1 13 C0.67 13 0.34 13 0 13 C0 8.71 0 4.42 0 0 Z " fill="#24AC24" transform="translate(8,57)"/>
<path d="M0 0 C2.97 0.495 2.97 0.495 6 1 C5.01 1.33 4.02 1.66 3 2 C2.01 1.34 1.02 0.68 0 0 Z " fill="#1EA51E" transform="translate(78,10)"/>
<path d="M0 0 C1.65 0 3.3 0 5 0 C5 0.33 5 0.66 5 1 C3.35 1 1.7 1 0 1 C0 0.67 0 0.34 0 0 Z " fill="#16BE0E" transform="translate(70,118)"/>
<path d="M0 0 C1.65 0 3.3 0 5 0 C5 0.33 5 0.66 5 1 C3.35 1 1.7 1 0 1 C0 0.67 0 0.34 0 0 Z " fill="#22E429" transform="translate(75,117)"/>
<path d="M0 0 C0 0.99 0 1.98 0 3 C-0.66 2.67 -1.32 2.34 -2 2 C-1.34 1.34 -0.68 0.68 0 0 Z " fill="#168E12" transform="translate(105,99)"/>
<path d="M0 0 C0.99 0.99 1.98 1.98 3 3 C2.01 2.67 1.02 2.34 0 2 C0 1.34 0 0.68 0 0 Z " fill="#179115" transform="translate(22,99)"/>
<path d="M0 0 C0.33 0 0.66 0 1 0 C1 1.65 1 3.3 1 5 C0.67 5 0.34 5 0 5 C0 3.35 0 1.7 0 0 Z " fill="#12D707" transform="translate(9,70)"/>
<path d="M0 0 C0.33 0 0.66 0 1 0 C1 1.65 1 3.3 1 5 C0.67 5 0.34 5 0 5 C0 3.35 0 1.7 0 0 Z " fill="#24C312" transform="translate(118,52)"/>
<path d="M0 0 C4 1 4 1 4 1 Z " fill="#139E15" transform="translate(49,117)"/>
<path d="M0 0 C1 4 1 4 1 4 Z " fill="#2DCF30" transform="translate(117,75)"/>
<path d="M0 0 C1 4 1 4 1 4 Z " fill="#28CA23" transform="translate(10,75)"/>
<path d="M0 0 C1 4 1 4 1 4 Z " fill="#1EBF0A" transform="translate(9,53)"/>
<path d="M0 0 C1 4 1 4 1 4 Z " fill="#28CD2A" transform="translate(117,48)"/>
<path d="M0 0 C1 4 1 4 1 4 Z " fill="#27CB2D" transform="translate(10,48)"/>
<path d="M0 0 C4 1 4 1 4 1 Z " fill="#19D815" transform="translate(74,9)"/>
<path d="M0 0 C4 1 4 1 4 1 Z " fill="#10930C" transform="translate(50,9)"/>
<path d="M0 0 C3 1 3 1 3 1 Z " fill="#13BE18" transform="translate(46,116)"/>
<path d="M0 0 C3 1 3 1 3 1 Z " fill="#239D19" transform="translate(82,115)"/>
<path d="M0 0 C3 1 3 1 3 1 Z " fill="#2CC230" transform="translate(43,115)"/>
<path d="M0 0 C0.33 0.66 0.66 1.32 1 2 C0.34 1.67 -0.32 1.34 -1 1 C-0.67 0.67 -0.34 0.34 0 0 Z " fill="#2ED022" transform="translate(102,102)"/>
<path d="M0 0 C0.66 0.66 1.32 1.32 2 2 C1.34 2 0.68 2 0 2 C0 1.34 0 0.68 0 0 Z " fill="#31C726" transform="translate(25,102)"/>
<path d="M0 0 C3 1 3 1 3 1 Z " fill="#32DD31" transform="translate(47,10)"/>
<path d="M0 0 C2 1 2 1 2 1 Z " fill="#2DCF15" transform="translate(80,116)"/>
<path d="M0 0 C2 1 2 1 2 1 Z " fill="#20DD0E" transform="translate(85,114)"/>
<path d="M0 0 C2 1 2 1 2 1 Z " fill="#0A6B08" transform="translate(41,114)"/>
<path d="M0 0 C2 1 2 1 2 1 Z " fill="#13C114" transform="translate(87,113)"/>
<path d="M0 0 C2 1 2 1 2 1 Z " fill="#1C870B" transform="translate(39,113)"/>
<path d="M0 0 C2 1 2 1 2 1 Z " fill="#0BF518" transform="translate(89,112)"/>
<path d="M0 0 C2 1 2 1 2 1 Z " fill="#10CA09" transform="translate(37,112)"/>
<path d="M0 0 C2 1 2 1 2 1 Z " fill="#1CE821" transform="translate(92,110)"/>
<path d="M0 0 C2 1 2 1 2 1 Z " fill="#14B719" transform="translate(34,110)"/>
<path d="M0 0 C2 1 2 1 2 1 Z " fill="#0DBE08" transform="translate(95,108)"/>
<path d="M0 0 C2 1 2 1 2 1 Z " fill="#16B714" transform="translate(31,108)"/>
<path d="" fill="#019308" transform="translate(0,0)"/>
<path d="" fill="#059403" transform="translate(0,0)"/>
<path d="M0 0 C2 1 2 1 2 1 Z " fill="#22C923" transform="translate(96,19)"/>
<path d="M0 0 C2 1 2 1 2 1 Z " fill="#21E820" transform="translate(30,19)"/>
<path d="M0 0 C2 1 2 1 2 1 Z " fill="#10AD17" transform="translate(93,17)"/>
<path d="M0 0 C2 1 2 1 2 1 Z " fill="#16B519" transform="translate(33,17)"/>
<path d="M0 0 C2 1 2 1 2 1 Z " fill="#1FC128" transform="translate(90,15)"/>
<path d="M0 0 C2 1 2 1 2 1 Z " fill="#26CA20" transform="translate(36,15)"/>
<path d="M0 0 C2 1 2 1 2 1 Z " fill="#126013" transform="translate(88,14)"/>
<path d="M0 0 C2 1 2 1 2 1 Z " fill="#22A720" transform="translate(38,14)"/>
<path d="M0 0 C2 1 2 1 2 1 Z " fill="#1EE715" transform="translate(86,13)"/>
<path d="M0 0 C2 1 2 1 2 1 Z " fill="#1EC81C" transform="translate(40,13)"/>
<path d="M0 0 C2 1 2 1 2 1 Z " fill="#0D8F08" transform="translate(84,12)"/>
<path d="M0 0 C2 1 2 1 2 1 Z " fill="#2FDB2A" transform="translate(42,12)"/>
<path d="M0 0 C2 1 2 1 2 1 Z " fill="#02B401" transform="translate(45,11)"/>
<path d="" fill="#00BA00" transform="translate(0,0)"/>
<path d="" fill="#0BBE0E" transform="translate(0,0)"/>
<path d="" fill="#21DF21" transform="translate(0,0)"/>
<path d="" fill="#12B10E" transform="translate(0,0)"/>
<path d="" fill="#22A419" transform="translate(0,0)"/>
<path d="" fill="#018C00" transform="translate(0,0)"/>
<path d="" fill="#11A800" transform="translate(0,0)"/>
<path d="" fill="#07AF00" transform="translate(0,0)"/>
<path d="" fill="#12BC00" transform="translate(0,0)"/>
<path d="" fill="#13B111" transform="translate(0,0)"/>
<path d="" fill="#17F017" transform="translate(0,0)"/>
<path d="" fill="#0EB10D" transform="translate(0,0)"/>
<path d="" fill="#02A700" transform="translate(0,0)"/>
<path d="" fill="#07A806" transform="translate(0,0)"/>
<path d="" fill="#2EE72E" transform="translate(0,0)"/>
<path d="" fill="#43F626" transform="translate(0,0)"/>
<path d="" fill="#16A01B" transform="translate(0,0)"/>
<path d="" fill="#129E08" transform="translate(0,0)"/>
<path d="" fill="#119910" transform="translate(0,0)"/>
<path d="" fill="#159C08" transform="translate(0,0)"/>
<path d="" fill="#21AE13" transform="translate(0,0)"/>
<path d="" fill="#1BAD13" transform="translate(0,0)"/>
<path d="" fill="#21B413" transform="translate(0,0)"/>
<path d="" fill="#19AF16" transform="translate(0,0)"/>
<path d="" fill="#25D314" transform="translate(0,0)"/>
<path d="" fill="#38E03A" transform="translate(0,0)"/>
<path d="" fill="#2BDA18" transform="translate(0,0)"/>
<path d="" fill="#01AC02" transform="translate(0,0)"/>
<path d="" fill="#10A203" transform="translate(0,0)"/>
<path d="" fill="#059E02" transform="translate(0,0)"/>
<path d="" fill="#3CCD38" transform="translate(0,0)"/>
<path d="" fill="#3DCF33" transform="translate(0,0)"/>
<path d="" fill="#49DF3B" transform="translate(0,0)"/>
<path d="" fill="#0EAB04" transform="translate(0,0)"/>
<path d="" fill="#0BAE1A" transform="translate(0,0)"/>
<path d="" fill="#18B420" transform="translate(0,0)"/>
</svg>
